<svg xmlns="http://www.w3.org/2000/svg" viewBox="0 0 1090.00 341.00">
  <style>
    .key-bg { fill: #f5f5f5; stroke: #d4d4d4; stroke-width: 1; }
    .key-index { fill: #171717; font-family: ui-monospace, SFMono-Regular, "SF Mono", Menlo, Consolas, "Liberation Mono", monospace; font-weight: 700; text-anchor: middle; dominant-baseline: central; }
    .key-part { font-family: system-ui, -apple-system, BlinkMacSystemFont, "Segoe UI", Roboto, sans-serif; text-anchor: middle; dominant-baseline: central; }
    @media (prefers-color-scheme: dark) {
      .key-bg { fill: #2a2a2a; stroke: #404040; }
      .key-index { fill: #e5e5e5; }
    }
    .key-bg.part-0 { stroke: #f59e0b; }
    .key-part.part-0 { fill: #f59e0b; }
    .key-bg.part-1 { stroke: #14b8a6; }
    .key-part.part-1 { fill: #14b8a6; }
  </style>
  <g>
    <path class="key-bg part-0" d="M 26.00,57.00 L 84.00,57.00 Q 88.00,57.00 88.00,61.00 L 88.00,119.00 Q 88.00,123.00 84.00,123.00 L 26.00,123.00 Q 22.00,123.00 22.00,119.00 L 22.00,61.00 Q 22.00,57.00 26.00,57.00 Z" />
    <path class="key-bg part-0" d="M 96.00,47.90 L 154.00,47.90 Q 158.00,47.90 158.00,51.90 L 158.00,109.90 Q 158.00,113.90 154.00,113.90 L 96.00,113.90 Q 92.00,113.90 92.00,109.90 L 92.00,51.90 Q 92.00,47.90 96.00,47.90 Z" />
    <path class="key-bg part-0" d="M 166.00,30.40 L 224.00,30.40 Q 228.00,30.40 228.00,34.40 L 228.00,92.40 Q 228.00,96.40 224.00,96.40 L 166.00,96.40 Q 162.00,96.40 162.00,92.40 L 162.00,34.40 Q 162.00,30.40 166.00,30.40 Z" />
    <path class="key-bg part-0" d="M 236.00,22.00 L 294.00,22.00 Q 298.00,22.00 298.00,26.00 L 298.00,84.00 Q 298.00,88.00 294.00,88.00 L 236.00,88.00 Q 232.00,88.00 232.00,84.00 L 232.00,26.00 Q 232.00,22.00 236.00,22.00 Z" />
    <path class="key-bg part-0" d="M 306.00,30.40 L 364.00,30.40 Q 368.00,30.40 368.00,34.40 L 368.00,92.40 Q 368.00,96.40 364.00,96.40 L 306.00,96.40 Q 302.00,96.40 302.00,92.40 L 302.00,34.40 Q 302.00,30.40 306.00,30.40 Z" />
    <path class="key-bg part-0" d="M 376.00,38.80 L 434.00,38.80 Q 438.00,38.80 438.00,42.80 L 438.00,100.80 Q 438.00,104.80 434.00,104.80 L 376.00,104.80 Q 372.00,104.80 372.00,100.80 L 372.00,42.80 Q 372.00,38.80 376.00,38.80 Z" />
    <path class="key-bg part-1" d="M 656.00,38.80 L 714.00,38.80 Q 718.00,38.80 718.00,42.80 L 718.00,100.80 Q 718.00,104.80 714.00,104.80 L 656.00,104.80 Q 652.00,104.80 652.00,100.80 L 652.00,42.80 Q 652.00,38.80 656.00,38.80 Z" />
    <path class="key-bg part-1" d="M 726.00,30.40 L 784.00,30.40 Q 788.00,30.40 788.00,34.40 L 788.00,92.40 Q 788.00,96.40 784.00,96.40 L 726.00,96.40 Q 722.00,96.40 722.00,92.40 L 722.00,34.40 Q 722.00,30.40 726.00,30.40 Z" />
    <path class="key-bg part-1" d="M 796.00,22.00 L 854.00,22.00 Q 858.00,22.00 858.00,26.00 L 858.00,84.00 Q 858.00,88.00 854.00,88.00 L 796.00,88.00 Q 792.00,88.00 792.00,84.00 L 792.00,26.00 Q 792.00,22.00 796.00,22.00 Z" />
    <path class="key-bg part-1" d="M 866.00,30.40 L 924.00,30.40 Q 928.00,30.40 928.00,34.40 L 928.00,92.40 Q 928.00,96.40 924.00,96.40 L 866.00,96.40 Q 862.00,96.40 862.00,92.40 L 862.00,34.40 Q 862.00,30.40 866.00,30.40 Z" />
    <path class="key-bg part-1" d="M 936.00,47.90 L 994.00,47.90 Q 998.00,47.90 998.00,51.90 L 998.00,109.90 Q 998.00,113.90 994.00,113.90 L 936.00,113.90 Q 932.00,113.90 932.00,109.90 L 932.00,51.90 Q 932.00,47.90 936.00,47.90 Z" />
    <path class="key-bg part-1" d="M 1006.00,57.00 L 1064.00,57.00 Q 1068.00,57.00 1068.00,61.00 L 1068.00,119.00 Q 1068.00,123.00 1064.00,123.00 L 1006.00,123.00 Q 1002.00,123.00 1002.00,119.00 L 1002.00,61.00 Q 1002.00,57.00 1006.00,57.00 Z" />
    <path class="key-bg part-0" d="M 26.00,127.00 L 84.00,127.00 Q 88.00,127.00 88.00,131.00 L 88.00,189.00 Q 88.00,193.00 84.00,193.00 L 26.00,193.00 Q 22.00,193.00 22.00,189.00 L 22.00,131.00 Q 22.00,127.00 26.00,127.00 Z" />
    <path class="key-bg part-0" d="M 96.00,117.90 L 154.00,117.90 Q 158.00,117.90 158.00,121.90 L 158.00,179.90 Q 158.00,183.90 154.00,183.90 L 96.00,183.90 Q 92.00,183.90 92.00,179.90 L 92.00,121.90 Q 92.00,117.90 96.00,117.90 Z" />
    <path class="key-bg part-0" d="M 166.00,100.40 L 224.00,100.40 Q 228.00,100.40 228.00,104.40 L 228.00,162.40 Q 228.00,166.40 224.00,166.40 L 166.00,166.40 Q 162.00,166.40 162.00,162.40 L 162.00,104.40 Q 162.00,100.40 166.00,100.40 Z" />
    <path class="key-bg part-0" d="M 236.00,92.00 L 294.00,92.00 Q 298.00,92.00 298.00,96.00 L 298.00,154.00 Q 298.00,158.00 294.00,158.00 L 236.00,158.00 Q 232.00,158.00 232.00,154.00 L 232.00,96.00 Q 232.00,92.00 236.00,92.00 Z" />
    <path class="key-bg part-0" d="M 306.00,100.40 L 364.00,100.40 Q 368.00,100.40 368.00,104.40 L 368.00,162.40 Q 368.00,166.40 364.00,166.40 L 306.00,166.40 Q 302.00,166.40 302.00,162.40 L 302.00,104.40 Q 302.00,100.40 306.00,100.40 Z" />
    <path class="key-bg part-0" d="M 376.00,108.80 L 434.00,108.80 Q 438.00,108.80 438.00,112.80 L 438.00,170.80 Q 438.00,174.80 434.00,174.80 L 376.00,174.80 Q 372.00,174.80 372.00,170.80 L 372.00,112.80 Q 372.00,108.80 376.00,108.80 Z" />
    <path class="key-bg part-1" d="M 656.00,108.80 L 714.00,108.80 Q 718.00,108.80 718.00,112.80 L 718.00,170.80 Q 718.00,174.80 714.00,174.80 L 656.00,174.80 Q 652.00,174.80 652.00,170.80 L 652.00,112.80 Q 652.00,108.80 656.00,108.80 Z" />
    <path class="key-bg part-1" d="M 726.00,100.40 L 784.00,100.40 Q 788.00,100.40 788.00,104.40 L 788.00,162.40 Q 788.00,166.40 784.00,166.40 L 726.00,166.40 Q 722.00,166.40 722.00,162.40 L 722.00,104.40 Q 722.00,100.40 726.00,100.40 Z" />
    <path class="key-bg part-1" d="M 796.00,92.00 L 854.00,92.00 Q 858.00,92.00 858.00,96.00 L 858.00,154.00 Q 858.00,158.00 854.00,158.00 L 796.00,158.00 Q 792.00,158.00 792.00,154.00 L 792.00,96.00 Q 792.00,92.00 796.00,92.00 Z" />
    <path class="key-bg part-1" d="M 866.00,100.40 L 924.00,100.40 Q 928.00,100.40 928.00,104.40 L 928.00,162.40 Q 928.00,166.40 924.00,166.40 L 866.00,166.40 Q 862.00,166.40 862.00,162.40 L 862.00,104.40 Q 862.00,100.40 866.00,100.40 Z" />
    <path class="key-bg part-1" d="M 936.00,117.90 L 994.00,117.90 Q 998.00,117.90 998.00,121.90 L 998.00,179.90 Q 998.00,183.90 994.00,183.90 L 936.00,183.90 Q 932.00,183.90 932.00,179.90 L 932.00,121.90 Q 932.00,117.90 936.00,117.90 Z" />
    <path class="key-bg part-1" d="M 1006.00,127.00 L 1064.00,127.00 Q 1068.00,127.00 1068.00,131.00 L 1068.00,189.00 Q 1068.00,193.00 1064.00,193.00 L 1006.00,193.00 Q 1002.00,193.00 1002.00,189.00 L 1002.00,131.00 Q 1002.00,127.00 1006.00,127.00 Z" />
    <path class="key-bg part-0" d="M 26.00,197.00 L 84.00,197.00 Q 88.00,197.00 88.00,201.00 L 88.00,259.00 Q 88.00,263.00 84.00,263.00 L 26.00,263.00 Q 22.00,263.00 22.00,259.00 L 22.00,201.00 Q 22.00,197.00 26.00,197.00 Z" />
    <path class="key-bg part-0" d="M 96.00,187.90 L 154.00,187.90 Q 158.00,187.90 158.00,191.90 L 158.00,249.90 Q 158.00,253.90 154.00,253.90 L 96.00,253.90 Q 92.00,253.90 92.00,249.90 L 92.00,191.90 Q 92.00,187.90 96.00,187.90 Z" />
    <path class="key-bg part-0" d="M 166.00,170.40 L 224.00,170.40 Q 228.00,170.40 228.00,174.40 L 228.00,232.40 Q 228.00,236.40 224.00,236.40 L 166.00,236.40 Q 162.00,236.40 162.00,232.40 L 162.00,174.40 Q 162.00,170.40 166.00,170.40 Z" />
    <path class="key-bg part-0" d="M 236.00,162.00 L 294.00,162.00 Q 298.00,162.00 298.00,166.00 L 298.00,224.00 Q 298.00,228.00 294.00,228.00 L 236.00,228.00 Q 232.00,228.00 232.00,224.00 L 232.00,166.00 Q 232.00,162.00 236.00,162.00 Z" />
    <path class="key-bg part-0" d="M 306.00,170.40 L 364.00,170.40 Q 368.00,170.40 368.00,174.40 L 368.00,232.40 Q 368.00,236.40 364.00,236.40 L 306.00,236.40 Q 302.00,236.40 302.00,232.40 L 302.00,174.40 Q 302.00,170.40 306.00,170.40 Z" />
    <path class="key-bg part-0" d="M 376.00,178.80 L 434.00,178.80 Q 438.00,178.80 438.00,182.80 L 438.00,240.80 Q 438.00,244.80 434.00,244.80 L 376.00,244.80 Q 372.00,244.80 372.00,240.80 L 372.00,182.80 Q 372.00,178.80 376.00,178.80 Z" />
    <path class="key-bg part-1" d="M 656.00,178.80 L 714.00,178.80 Q 718.00,178.80 718.00,182.80 L 718.00,240.80 Q 718.00,244.80 714.00,244.80 L 656.00,244.80 Q 652.00,244.80 652.00,240.80 L 652.00,182.80 Q 652.00,178.80 656.00,178.80 Z" />
    <path class="key-bg part-1" d="M 726.00,170.40 L 784.00,170.40 Q 788.00,170.40 788.00,174.40 L 788.00,232.40 Q 788.00,236.40 784.00,236.40 L 726.00,236.40 Q 722.00,236.40 722.00,232.40 L 722.00,174.40 Q 722.00,170.40 726.00,170.40 Z" />
    <path class="key-bg part-1" d="M 796.00,162.00 L 854.00,162.00 Q 858.00,162.00 858.00,166.00 L 858.00,224.00 Q 858.00,228.00 854.00,228.00 L 796.00,228.00 Q 792.00,228.00 792.00,224.00 L 792.00,166.00 Q 792.00,162.00 796.00,162.00 Z" />
    <path class="key-bg part-1" d="M 866.00,170.40 L 924.00,170.40 Q 928.00,170.40 928.00,174.40 L 928.00,232.40 Q 928.00,236.40 924.00,236.40 L 866.00,236.40 Q 862.00,236.40 862.00,232.40 L 862.00,174.40 Q 862.00,170.40 866.00,170.40 Z" />
    <path class="key-bg part-1" d="M 936.00,187.90 L 994.00,187.90 Q 998.00,187.90 998.00,191.90 L 998.00,249.90 Q 998.00,253.90 994.00,253.90 L 936.00,253.90 Q 932.00,253.90 932.00,249.90 L 932.00,191.90 Q 932.00,187.90 936.00,187.90 Z" />
    <path class="key-bg part-1" d="M 1006.00,197.00 L 1064.00,197.00 Q 1068.00,197.00 1068.00,201.00 L 1068.00,259.00 Q 1068.00,263.00 1064.00,263.00 L 1006.00,263.00 Q 1002.00,263.00 1002.00,259.00 L 1002.00,201.00 Q 1002.00,197.00 1006.00,197.00 Z" />
    <path class="key-bg part-0" d="M 306.00,240.40 L 364.00,240.40 Q 368.00,240.40 368.00,244.40 L 368.00,302.40 Q 368.00,306.40 364.00,306.40 L 306.00,306.40 Q 302.00,306.40 302.00,302.40 L 302.00,244.40 Q 302.00,240.40 306.00,240.40 Z" />
    <path class="key-bg part-0" d="M 376.00,248.80 L 434.00,248.80 Q 438.00,248.80 438.00,252.80 L 438.00,310.80 Q 438.00,314.80 434.00,314.80 L 376.00,314.80 Q 372.00,314.80 372.00,310.80 L 372.00,252.80 Q 372.00,248.80 376.00,248.80 Z" />
    <path class="key-bg part-0" d="M 446.00,253.00 L 504.00,253.00 Q 508.00,253.00 508.00,257.00 L 508.00,315.00 Q 508.00,319.00 504.00,319.00 L 446.00,319.00 Q 442.00,319.00 442.00,315.00 L 442.00,257.00 Q 442.00,253.00 446.00,253.00 Z" />
    <path class="key-bg part-1" d="M 586.00,253.00 L 644.00,253.00 Q 648.00,253.00 648.00,257.00 L 648.00,315.00 Q 648.00,319.00 644.00,319.00 L 586.00,319.00 Q 582.00,319.00 582.00,315.00 L 582.00,257.00 Q 582.00,253.00 586.00,253.00 Z" />
    <path class="key-bg part-1" d="M 656.00,248.80 L 714.00,248.80 Q 718.00,248.80 718.00,252.80 L 718.00,310.80 Q 718.00,314.80 714.00,314.80 L 656.00,314.80 Q 652.00,314.80 652.00,310.80 L 652.00,252.80 Q 652.00,248.80 656.00,248.80 Z" />
    <path class="key-bg part-1" d="M 726.00,240.40 L 784.00,240.40 Q 788.00,240.40 788.00,244.40 L 788.00,302.40 Q 788.00,306.40 784.00,306.40 L 726.00,306.40 Q 722.00,306.40 722.00,302.40 L 722.00,244.40 Q 722.00,240.40 726.00,240.40 Z" />
  </g>
  <g>
    <text class="key-index" x="55.00" y="78.36" font-size="26">0</text>
    <text class="key-part part-0" x="55.00" y="105.64" font-size="18">left</text>
    <text class="key-index" x="125.00" y="69.26" font-size="26">1</text>
    <text class="key-part part-0" x="125.00" y="96.54" font-size="18">left</text>
    <text class="key-index" x="195.00" y="51.76" font-size="26">2</text>
    <text class="key-part part-0" x="195.00" y="79.04" font-size="18">left</text>
    <text class="key-index" x="265.00" y="43.36" font-size="26">3</text>
    <text class="key-part part-0" x="265.00" y="70.64" font-size="18">left</text>
    <text class="key-index" x="335.00" y="51.76" font-size="26">4</text>
    <text class="key-part part-0" x="335.00" y="79.04" font-size="18">left</text>
    <text class="key-index" x="405.00" y="60.16" font-size="26">5</text>
    <text class="key-part part-0" x="405.00" y="87.44" font-size="18">left</text>
    <text class="key-index" x="685.00" y="60.16" font-size="26">6</text>
    <text class="key-part part-1" x="685.00" y="87.44" font-size="18">right</text>
    <text class="key-index" x="755.00" y="51.76" font-size="26">7</text>
    <text class="key-part part-1" x="755.00" y="79.04" font-size="18">right</text>
    <text class="key-index" x="825.00" y="43.36" font-size="26">8</text>
    <text class="key-part part-1" x="825.00" y="70.64" font-size="18">right</text>
    <text class="key-index" x="895.00" y="51.76" font-size="26">9</text>
    <text class="key-part part-1" x="895.00" y="79.04" font-size="18">right</text>
    <text class="key-index" x="965.00" y="69.26" font-size="26">10</text>
    <text class="key-part part-1" x="965.00" y="96.54" font-size="18">right</text>
    <text class="key-index" x="1035.00" y="78.36" font-size="26">11</text>
    <text class="key-part part-1" x="1035.00" y="105.64" font-size="18">right</text>
    <text class="key-index" x="55.00" y="148.36" font-size="26">12</text>
    <text class="key-part part-0" x="55.00" y="175.64" font-size="18">left</text>
    <text class="key-index" x="125.00" y="139.26" font-size="26">13</text>
    <text class="key-part part-0" x="125.00" y="166.54" font-size="18">left</text>
    <text class="key-index" x="195.00" y="121.76" font-size="26">14</text>
    <text class="key-part part-0" x="195.00" y="149.04" font-size="18">left</text>
    <text class="key-index" x="265.00" y="113.36" font-size="26">15</text>
    <text class="key-part part-0" x="265.00" y="140.64" font-size="18">left</text>
    <text class="key-index" x="335.00" y="121.76" font-size="26">16</text>
    <text class="key-part part-0" x="335.00" y="149.04" font-size="18">left</text>
    <text class="key-index" x="405.00" y="130.16" font-size="26">17</text>
    <text class="key-part part-0" x="405.00" y="157.44" font-size="18">left</text>
    <text class="key-index" x="685.00" y="130.16" font-size="26">18</text>
    <text class="key-part part-1" x="685.00" y="157.44" font-size="18">right</text>
    <text class="key-index" x="755.00" y="121.76" font-size="26">19</text>
    <text class="key-part part-1" x="755.00" y="149.04" font-size="18">right</text>
    <text class="key-index" x="825.00" y="113.36" font-size="26">20</text>
    <text class="key-part part-1" x="825.00" y="140.64" font-size="18">right</text>
    <text class="key-index" x="895.00" y="121.76" font-size="26">21</text>
    <text class="key-part part-1" x="895.00" y="149.04" font-size="18">right</text>
    <text class="key-index" x="965.00" y="139.26" font-size="26">22</text>
    <text class="key-part part-1" x="965.00" y="166.54" font-size="18">right</text>
    <text class="key-index" x="1035.00" y="148.36" font-size="26">23</text>
    <text class="key-part part-1" x="1035.00" y="175.64" font-size="18">right</text>
    <text class="key-index" x="55.00" y="218.36" font-size="26">24</text>
    <text class="key-part part-0" x="55.00" y="245.64" font-size="18">left</text>
    <text class="key-index" x="125.00" y="209.26" font-size="26">25</text>
    <text class="key-part part-0" x="125.00" y="236.54" font-size="18">left</text>
    <text class="key-index" x="195.00" y="191.76" font-size="26">26</text>
    <text class="key-part part-0" x="195.00" y="219.04" font-size="18">left</text>
    <text class="key-index" x="265.00" y="183.36" font-size="26">27</text>
    <text class="key-part part-0" x="265.00" y="210.64" font-size="18">left</text>
    <text class="key-index" x="335.00" y="191.76" font-size="26">28</text>
    <text class="key-part part-0" x="335.00" y="219.04" font-size="18">left</text>
    <text class="key-index" x="405.00" y="200.16" font-size="26">29</text>
    <text class="key-part part-0" x="405.00" y="227.44" font-size="18">left</text>
    <text class="key-index" x="685.00" y="200.16" font-size="26">30</text>
    <text class="key-part part-1" x="685.00" y="227.44" font-size="18">right</text>
    <text class="key-index" x="755.00" y="191.76" font-size="26">31</text>
    <text class="key-part part-1" x="755.00" y="219.04" font-size="18">right</text>
    <text class="key-index" x="825.00" y="183.36" font-size="26">32</text>
    <text class="key-part part-1" x="825.00" y="210.64" font-size="18">right</text>
    <text class="key-index" x="895.00" y="191.76" font-size="26">33</text>
    <text class="key-part part-1" x="895.00" y="219.04" font-size="18">right</text>
    <text class="key-index" x="965.00" y="209.26" font-size="26">34</text>
    <text class="key-part part-1" x="965.00" y="236.54" font-size="18">right</text>
    <text class="key-index" x="1035.00" y="218.36" font-size="26">35</text>
    <text class="key-part part-1" x="1035.00" y="245.64" font-size="18">right</text>
    <text class="key-index" x="335.00" y="261.76" font-size="26">36</text>
    <text class="key-part part-0" x="335.00" y="289.04" font-size="18">left</text>
    <text class="key-index" x="405.00" y="270.16" font-size="26">37</text>
    <text class="key-part part-0" x="405.00" y="297.44" font-size="18">left</text>
    <text class="key-index" x="475.00" y="274.36" font-size="26">38</text>
    <text class="key-part part-0" x="475.00" y="301.64" font-size="18">left</text>
    <text class="key-index" x="615.00" y="274.36" font-size="26">39</text>
    <text class="key-part part-1" x="615.00" y="301.64" font-size="18">right</text>
    <text class="key-index" x="685.00" y="270.16" font-size="26">40</text>
    <text class="key-part part-1" x="685.00" y="297.44" font-size="18">right</text>
    <text class="key-index" x="755.00" y="261.76" font-size="26">41</text>
    <text class="key-part part-1" x="755.00" y="289.04" font-size="18">right</text>
  </g>
</svg>
